<?xml version="1.0" encoding="UTF-8"?>
<svg id="Layer_1" xmlns="http://www.w3.org/2000/svg" version="1.1" xmlns:xlink="http://www.w3.org/1999/xlink" viewBox="0 0 190 190" fill="currentColor">
  <!-- Generator: Adobe Illustrator 29.8.2, SVG Export Plug-In . SVG Version: 2.1.1 Build 3)  -->
  <defs>
    <style>
      .st0 {
        fill: none;
      }

      .st1 {
        clip-path: url(#clippath);
      }
    </style>
    <clipPath id="clippath">
      <rect class="st0" x="45" y="45" width="100" height="100"/>
    </clipPath>
  </defs>
  <path d="M74.41,56.92h-29.41v29.41h29.41v-29.41ZM68.53,80.45h-17.65v-17.65h5.88v5.88h5.88v-5.88h5.88v17.65ZM68.53,80.45"/>
  <path d="M115.59,45.16v41.18h29.41v-41.18h-29.41ZM139.12,80.45h-5.88v-5.88h-5.88v5.88h-5.88v-29.41h5.88v5.88h5.88v-5.88h5.88v29.41ZM139.12,80.45"/>
  <g class="st1">
    <rect x="127.35" y="62.8" width="5.88" height="5.88"/>
    <path d="M45,92.22v2.94c2.36,66.13,97.52,66.36,100,0v-2.94H45ZM59.73,121.63h20.56c3.9.15,3.89,5.74,0,5.88h-15.25c-1.94-1.8-3.72-3.77-5.31-5.88h0ZM130.27,121.63h-20.56c-7.79-.29-7.79-11.48,0-11.76h26.89c-1.51,4.26-3.66,8.22-6.33,11.76h0ZM138.23,103.98h-28.52c-15.6.58-15.57,22.95,0,23.53h15.25c-13.05,12.81-36.11,15.59-51.95,5.88h7.28c11.69-.44,11.69-17.22,0-17.65h-24.3c-2.83-5.33-4.59-11.31-5.01-17.65h88.04c-.13,2-.4,3.96-.79,5.88h0ZM138.23,103.98"/>
  </g>
  <path d="M100.41,83.71l9.14-9.14-9.14-9.14-4.16,4.16,2.04,2.04h-15.06v5.88h15.06l-2.04,2.04,4.16,4.16ZM100.41,83.71"/>
  <path d="M93.75,61.88l-2.04-2.04h15.06v-5.88h-15.06l2.04-2.04-4.16-4.16-9.14,9.14,9.14,9.14,4.16-4.16ZM93.75,61.88"/>
</svg>