<?xml version="1.0" encoding="UTF-8"?>
<svg id="Layer_1" xmlns="http://www.w3.org/2000/svg" version="1.1" viewBox="0 0 190 190" fill="currentColor">
  <!-- Generator: Adobe Illustrator 29.8.2, SVG Export Plug-In . SVG Version: 2.1.1 Build 3)  -->
  <path d="M139.12,50.88v-5.88s-17.65,0-17.65,0v5.88s5.88,0,5.88,0v5.88s-17.65,0-17.65,0v-5.88h5.88s0-5.88,0-5.88h-17.65s0,5.88,0,5.88h5.88v5.88s-17.65,0-17.65,0v-5.88h5.88s0-5.88,0-5.88h-17.65s0,5.88,0,5.88h5.88v5.88s-17.65,0-17.65,0v-5.88h5.88s0-5.88,0-5.88h-17.65s0,5.88,0,5.88h5.88v5.88h-5.88s0,52.94,0,52.94h29.41s0,11.77,0,11.77h5.88s0,23.53,0,23.53h17.65s0-23.53,0-23.53h5.88s0-11.77,0-11.77h29.41s0-52.94,0-52.94h-5.88v-5.88h5.88ZM97.94,139.12h-5.88s0-17.65,0-17.65h5.88s0,17.65,0,17.65ZM103.82,115.59h-17.65s0-5.88,0-5.88h17.65s0,5.88,0,5.88ZM133.24,103.82c-3.17,0-73.3,0-76.47,0v-41.18s76.47,0,76.47,0v41.18ZM133.24,103.82"/>
  <path d="M86.18,92.06c0-3.84-1.85-7.26-4.71-9.41,4.37-5.66.16-14.19-7.05-14.12-7.21-.07-11.42,8.46-7.05,14.12-2.86,2.15-4.71,5.57-4.71,9.41v5.88s23.53,0,23.53,0v-5.88ZM71.47,77.35c0-1.62,1.32-2.94,2.94-2.94,3.9.15,3.9,5.74,0,5.88-1.62,0-2.94-1.32-2.94-2.94h0ZM68.53,92.06c.3-7.8,11.47-7.79,11.77,0h-11.77ZM68.53,92.06"/>
  <rect x="95" y="68.53" width="32.35" height="5.88"/>
  <rect x="95" y="80.29" width="32.35" height="5.88"/>
  <rect x="95" y="92.06" width="32.35" height="5.88"/>
</svg>