<?xml version="1.0" encoding="UTF-8"?>
<svg id="Layer_1" xmlns="http://www.w3.org/2000/svg" version="1.1" viewBox="0 0 190 190" fill="currentColor">
  <!-- Generator: Adobe Illustrator 29.8.2, SVG Export Plug-In . SVG Version: 2.1.1 Build 3)  -->
  <rect x="92.06" y="116.19" width="5.88" height="5.88"/>
  <path d="M115.59,92.07h-5.88v-10.98h5.88v-10.4l-20.59-13.73-20.59,13.73v10.4h5.88v10.98h-5.88v5.88h41.18v-5.88ZM103.83,92.07h-5.88v-10.98h5.88v10.98ZM80.29,73.84l14.71-9.81,14.71,9.81v1.37h-29.42v-1.37ZM86.17,81.09h5.88v10.98h-5.88v-10.98ZM86.17,81.09"/>
  <path d="M108.1,124.43h22.2V45H59.7v79.43h22.2c.13.26.22.65.29.96l-6.36,10.41,15.06,9.2,4.11-6.73,4.12,6.73,15.06-9.2-6.36-10.41c.07-.3.16-.69.29-.96h0ZM95,128.54c-.53-.14-1.79-1.23-3.15-1.8-1.32-.55-2.96-.71-3.5-.97-.26-.55-.41-2.15-.97-3.5-.55-1.32-1.66-2.64-1.8-3.15.14-.53,1.23-1.79,1.8-3.15.55-1.33.71-2.96.97-3.5.54-.26,2.16-.41,3.5-.97,1.36-.56,2.62-1.65,3.15-1.79.52.14,1.81,1.24,3.15,1.79,1.33.55,2.95.7,3.5.97.26.53.41,2.16.97,3.5.56,1.36,1.65,2.62,1.8,3.15-.14.53-1.23,1.79-1.8,3.15-.55,1.32-.71,2.96-.97,3.5-.55.26-2.14.4-3.5.97-1.36.56-2.62,1.65-3.15,1.79h0ZM65.58,50.88h58.84v67.66h-14.15c-.17-1.61-1-2.87-1.62-3.82-.65-.99-.65-.98-.91-2.21-.94-5.04-3.51-5.52-7.33-6.43-3.32-2.11-5.6-3.52-9.81-.6-.99.65-.98.65-2.21.91-1.22.26-2.9.62-4.2,1.92-1.3,1.3-1.66,2.98-1.92,4.2-.26,1.23-.26,1.23-.91,2.21-.62.95-1.45,2.21-1.62,3.82h-14.15V50.88h0ZM88.93,136.91l-5.02-3.07,1.74-2.84c1.53.78,3.18.86,3.94,1.18.36.15.98.6,1.62,1l-2.28,3.73ZM101.07,136.91l-2.28-3.73c1.63-1.02,1.26-.98,2.83-1.31.8-.17,1.78-.38,2.73-.86l1.74,2.84-5.02,3.07ZM101.07,136.91"/>
</svg>