<?xml version="1.0" encoding="UTF-8"?>
<svg id="Layer_1" xmlns="http://www.w3.org/2000/svg" version="1.1" xmlns:xlink="http://www.w3.org/1999/xlink" viewBox="0 0 190 190" fill="currentColor">
  <!-- Generator: Adobe Illustrator 29.8.2, SVG Export Plug-In . SVG Version: 2.1.1 Build 3)  -->
  <defs>
    <style>
      .st0 {
        fill: none;
      }

      .st1 {
        clip-path: url(#clippath);
      }
    </style>
    <clipPath id="clippath">
      <rect class="st0" x="45" y="50.93" width="100" height="88.13"/>
    </clipPath>
  </defs>
  <g class="st1">
    <path d="M127.34,121.36h-5.89v-11.72h-35.31v11.72h-5.89v11.72h-5.89v5.86h58.86v-5.86h-5.89v-11.72ZM92.03,115.5h23.54v5.86h-23.54v-5.86ZM86.14,133.08v-5.86h35.31v5.86h-35.31ZM86.14,133.08"/>
    <path d="M89.09,97.93h-5.89v5.86h41.2v-5.86h-5.89v-41.01h5.89v-5.86h-41.2v5.86h5.89v11.72h-35.31c-11.7.44-11.69,17.14,0,17.58h35.31v11.72ZM94.97,56.92h17.66v41.01h-17.66v-41.01h0ZM53.77,80.35c-3.9-.15-3.9-5.71,0-5.86h35.31v5.86h-35.31ZM53.77,80.35"/>
  </g>
  <path d="M131.13,101.72l5.88-5.86,4.16,4.14-5.88,5.86-4.16-4.14ZM131.13,101.72"/>
  <rect x="136.17" y="112.58" width="8.83" height="5.86"/>
</svg>