<?xml version="1.0" encoding="UTF-8"?>
<svg id="Layer_1" xmlns="http://www.w3.org/2000/svg" version="1.1" viewBox="0 0 190 190" fill="currentColor">
  <!-- Generator: Adobe Illustrator 29.8.2, SVG Export Plug-In . SVG Version: 2.1.1 Build 3)  -->
  <path d="M139.12,114.12v-58.82H50.88v58.82h-5.88v2.94c0,9.73,7.92,17.65,17.65,17.65h64.71c9.73,0,17.65-7.92,17.65-17.65v-2.94h-5.88ZM56.76,61.18h76.47v52.94h-24.75l-2.94,2.94h-21.09l-2.94-2.94h-24.75v-52.94ZM127.35,128.82H62.65c-5.47,0-10.08-3.75-11.39-8.82h27.82l2.94,2.94h25.97l2.94-2.94h27.82c-1.31,5.07-5.92,8.82-11.39,8.82h0ZM127.35,128.82"/>
  <path d="M112.65,84.71h-5.88v-5.88c-.59-15.59-22.94-15.58-23.53,0h5.88c.3-7.8,11.47-7.79,11.77,0v5.88h-23.53v23.53h35.29v-23.53ZM106.76,102.35h-8.82v-5.88h-5.88v5.88h-8.82v-11.76h23.53v11.76ZM106.76,102.35"/>
  <path d="M63.5,72.08l4.16-4.16,5.88,5.88-4.16,4.16-5.88-5.88ZM63.5,72.08"/>
  <path d="M116.44,73.81l5.88-5.88,4.16,4.16-5.88,5.88-4.16-4.16ZM116.44,73.81"/>
  <rect x="62.65" y="102.35" width="8.82" height="5.88"/>
  <rect x="62.65" y="90.59" width="8.82" height="5.88"/>
  <rect x="118.53" y="102.35" width="8.82" height="5.88"/>
  <rect x="118.53" y="90.59" width="8.82" height="5.88"/>
</svg>