<?xml version="1.0" encoding="UTF-8"?>
<svg id="Layer_1" xmlns="http://www.w3.org/2000/svg" version="1.1" xmlns:xlink="http://www.w3.org/1999/xlink" viewBox="0 0 190 190" fill="currentColor">
  <!-- Generator: Adobe Illustrator 29.8.2, SVG Export Plug-In . SVG Version: 2.1.1 Build 3)  -->
  <defs>
    <style>
      .st0 {
        fill: none;
      }

      .st1 {
        clip-path: url(#clippath);
      }
    </style>
    <clipPath id="clippath">
      <rect class="st0" x="55.16" y="45" width="79.69" height="100"/>
    </clipPath>
  </defs>
  <g class="st1">
    <path d="M134.83,106.83v-5.91s-64.99,0-64.99,0c-19.57.72-19.57,28.8,0,29.54h14.77s0,14.54,0,14.54l11.82-3.94,11.82,3.94v-14.54s26.59,0,26.59,0v-5.91s-5.91,0-5.91,0v-17.72s5.91,0,5.91,0ZM102.34,136.8l-5.91-1.97-5.91,1.97v-18.16s11.82,0,11.82,0v18.16ZM108.25,124.56v-5.91s14.77,0,14.77,0v5.91s-14.77,0-14.77,0ZM123.02,112.74c-2.3,0-47.93,0-50.22,0v5.91s11.82,0,11.82,0v5.91s-14.77,0-14.77,0c-11.73-.44-11.75-17.29,0-17.72h53.17s0,5.91,0,5.91ZM123.02,112.74"/>
  </g>
  <path d="M66.89,72.61l5.91,5.91v16.5s47.27,0,47.27,0v-16.5s13.78-13.78,13.78-13.78l-37.42-19.73-35.45,18.69v31.32s5.91,0,5.91,0v-22.41ZM114.15,89.11h-35.45s0-10.23,0-10.23c7.71-5.97,27.74-5.97,35.45,0v10.23ZM124,66.22l-7.27,7.27c-10.42-6.75-30.19-6.75-40.6,0l-7.27-7.27,27.57-14.54,27.57,14.54ZM124,66.22"/>
</svg>