<?xml version="1.0" encoding="UTF-8"?>
<svg id="Layer_1" xmlns="http://www.w3.org/2000/svg" version="1.1" xmlns:xlink="http://www.w3.org/1999/xlink" viewBox="0 0 190 190" fill="currentColor">
  <!-- Generator: Adobe Illustrator 29.8.2, SVG Export Plug-In . SVG Version: 2.1.1 Build 3)  -->
  <defs>
    <style>
      .st0 {
        fill: none;
      }

      .st1 {
        clip-path: url(#clippath);
      }
    </style>
    <clipPath id="clippath">
      <rect class="st0" x="47.86" y="45" width="94.27" height="100"/>
    </clipPath>
  </defs>
  <g class="st1">
    <path d="M133.36,71.41l8.7-12.91-10.08-3.41-3.41-10.09-12.91,8.7v13.54l-4.56,4.56c-24.13-21.2-63.42-3.38-63.15,29.05,0,14.39,7.99,26.95,19.76,33.48l-2.1,4.07v6.6h5.89v-5.17l1.57-3.04c8.12,3.08,18.18,3.08,26.3,0l1.57,3.04v5.17h5.89v-6.6l-2.1-4.07c20.8-11,26.41-40.56,10.53-58.37l4.55-4.55h13.56ZM121.53,56.83l3.92-2.64,1.87,5.54,5.54,1.87-2.64,3.92h-8.69v-8.69ZM118.59,100.85c-1.63,42.9-63.13,42.89-64.76,0-.23-27.22,32.58-42.39,53.08-24.87l-4.18,4.18c-16.87-13.83-43.21-1.33-43.02,20.69,0,14.61,11.88,26.49,26.49,26.49,22.02.2,34.53-26.15,20.69-43.02l4.18-4.18c4.69,5.62,7.51,12.84,7.51,20.71h0ZM106.81,100.85c-1.04,27.3-40.18,27.29-41.21,0-.16-16.81,19.71-26.65,32.94-16.5l-4.22,4.22c-9.54-6.48-22.94.66-22.83,12.27,0,8.12,6.6,14.72,14.72,14.72,11.61.11,18.76-13.29,12.27-22.83l4.22-4.22c2.58,3.44,4.11,7.71,4.11,12.33h0ZM95.04,100.85c-.44,11.7-17.22,11.7-17.66,0-.08-6.4,6.92-10.8,12.63-7.97l-5.88,5.89,4.16,4.16,5.89-5.89c.55,1.15.86,2.44.86,3.81h0ZM95.04,100.85"/>
  </g>
</svg>