<?xml version="1.0" encoding="UTF-8"?>
<svg id="Layer_1" xmlns="http://www.w3.org/2000/svg" version="1.1" viewBox="0 0 190 190" fill="currentColor">
  <!-- Generator: Adobe Illustrator 29.8.2, SVG Export Plug-In . SVG Version: 2.1.1 Build 3)  -->
  <path d="M125.91,127.35c.16-4.57.97-9.38,2.43-14.31,1.91-6.45-1.97-13.1-8.34-14.74v-53.31h-45.34l-19.37,19.37v80.63h79.41v-8.82c0-4.86-3.94-8.81-8.79-8.82h0ZM122.7,111.38c-1.62,5.48-2.52,10.84-2.68,15.97h-5.93c-.15-5.42-1.04-10.75-2.65-15.88-1.2-3.82,1.68-7.65,5.61-7.65s6.76,3.79,5.64,7.55h0ZM72.94,55.04v7.61h-7.6l7.6-7.61ZM61.18,139.12v-70.59h17.65v-17.65h35.29v47.43c-6.45,1.67-10.32,8.44-8.28,14.92,1.43,4.55,2.23,9.3,2.37,14.12-4.85.01-8.8,3.97-8.8,8.82v2.94h-38.24ZM128.82,139.12h-23.53v-2.94c0-1.62,1.32-2.94,2.94-2.94h17.65c1.62,0,2.94,1.32,2.94,2.94v2.94ZM128.82,139.12"/>
  <path d="M78.82,109.71c-6.49,0-11.76,5.28-11.76,11.77.59,15.59,22.94,15.58,23.53,0,0-6.49-5.28-11.76-11.76-11.76h0ZM78.82,127.35c-3.24,0-5.88-2.64-5.88-5.88.3-7.79,11.47-7.79,11.76,0,0,3.24-2.64,5.88-5.88,5.88h0ZM78.82,127.35"/>
  <rect x="84.71" y="56.76" width="5.88" height="5.88"/>
  <rect x="96.47" y="56.76" width="11.76" height="5.88"/>
  <rect x="84.71" y="68.53" width="5.88" height="5.88"/>
  <rect x="96.47" y="68.53" width="11.76" height="5.88"/>
  <rect x="67.06" y="80.29" width="41.18" height="5.88"/>
  <rect x="67.06" y="92.06" width="35.29" height="5.88"/>
</svg>