<?xml version="1.0" encoding="UTF-8"?>
<svg id="Layer_1" xmlns="http://www.w3.org/2000/svg" version="1.1" viewBox="0 0 190 190" fill="currentColor">
  <!-- Generator: Adobe Illustrator 29.8.2, SVG Export Plug-In . SVG Version: 2.1.1 Build 3)  -->
  <path d="M135.27,77.35h-16.74v-29.41h-47.06v29.41h-16.74l-9.73,25.94v38.77h100v-38.77l-9.73-25.94ZM77.35,53.82h35.29v35.29h-35.29v-35.29ZM58.8,83.24h12.67v5.88h-5.88v5.88h58.82v-5.88h-5.88v-5.88h12.67l6.62,17.65H52.18l6.62-17.65ZM50.88,136.18v-29.41h88.23v29.41H50.88ZM50.88,136.18"/>
  <path d="M74.41,130.29h41.18v-17.65h-41.18v17.65ZM80.29,118.53h29.41v5.88h-29.41v-5.88ZM80.29,118.53"/>
  <rect x="86.18" y="62.65" width="17.65" height="5.88"/>
  <rect x="83.24" y="74.41" width="23.53" height="5.88"/>
</svg>