<?xml version="1.0" encoding="UTF-8"?>
<svg id="Layer_1" xmlns="http://www.w3.org/2000/svg" version="1.1" viewBox="0 0 190 190" fill="currentColor">
  <!-- Generator: Adobe Illustrator 29.8.2, SVG Export Plug-In . SVG Version: 2.1.1 Build 3)  -->
  <path d="M133.71,127.76v-50.62h-9.08c-1.4-14.05-12.61-25.25-26.65-26.65v-6.1h-5.96v6.1c-14.05,1.4-25.25,12.6-26.65,26.65h-9.08v50.62h-5.96v17.87h89.33v-17.87h-5.96ZM127.76,127.76h-5.96v-44.67h5.96v44.67ZM80.11,83.09v44.67h-5.96v-44.67h5.96ZM86.07,83.09h5.96v44.67h-5.96v-44.67ZM97.98,83.09h5.96v44.67h-5.96v-44.67ZM109.89,83.09h5.96v44.67h-5.96v-44.67ZM95,56.29c12.13,0,22.17,9.11,23.64,20.84h-47.28c1.47-11.73,11.51-20.84,23.64-20.84h0ZM62.24,83.09h5.96v44.67h-5.96v-44.67ZM133.71,139.67H56.29v-5.96h77.42v5.96ZM133.71,139.67"/>
</svg>