<?xml version="1.0" encoding="UTF-8"?>
<svg id="Layer_1" xmlns="http://www.w3.org/2000/svg" version="1.1" viewBox="0 0 190 190" fill="currentColor">
  <!-- Generator: Adobe Illustrator 29.8.2, SVG Export Plug-In . SVG Version: 2.1.1 Build 3)  -->
  <path d="M118.53,75.78v-30.78h-47.06v30.78l-26.47,17.65v51.57h100v-51.57l-26.47-17.65ZM80.03,116.43l-29.15,20.04v-36.44l29.15,16.4ZM77.35,65.34c7.38-1.24,13.22-7.08,14.46-14.46h6.38c1.24,7.38,7.08,13.22,14.46,14.46v42.83l-8.08,4.55-9.57-6.58-9.57,6.58-8.08-4.55v-42.83ZM95,113.27l37.59,25.84H57.41l37.59-25.84ZM109.97,116.43l29.15-16.4v36.44l-29.15-20.04ZM136.44,94.79l-17.91,10.07v-22.01l17.91,11.94ZM112.65,59.33c-4.13-1.07-7.39-4.32-8.45-8.45h8.45v8.45ZM85.8,50.88c-1.07,4.13-4.32,7.38-8.45,8.45v-8.45h8.45ZM71.47,104.86l-17.91-10.07,17.91-11.94v22.01ZM71.47,104.86"/>
  <path d="M95,97.94c6.49,0,11.76-5.28,11.76-11.76-.59-15.59-22.94-15.58-23.53,0,0,6.49,5.28,11.76,11.76,11.76h0ZM95,80.29c3.24,0,5.88,2.64,5.88,5.88-.3,7.79-11.47,7.79-11.77,0,0-3.24,2.64-5.88,5.88-5.88h0ZM95,80.29"/>
  <rect x="92.06" y="62.65" width="5.88" height="5.88"/>
</svg>