<?xml version="1.0" encoding="UTF-8"?>
<svg id="Layer_1" xmlns="http://www.w3.org/2000/svg" version="1.1" viewBox="0 0 190 190" fill="currentColor">
  <!-- Generator: Adobe Illustrator 29.8.2, SVG Export Plug-In . SVG Version: 2.1.1 Build 3)  -->
  <path d="M132.69,103.46c-3.58-11.28-10.3-24.9-19.38-32.28v-9.33l8.3-14.76h-54.62l8.3,14.76v2.15h-7.67c-4.29,0-8.16,2.12-10.08,5.54-1.32,2.36-4.66,3.15-7.14,1.69l-1.88-1.11-3.52,4.69,1.88,1.11c5.63,3.34,13.29,1.53,16.32-3.86.84-1.49,2.53-2.42,4.41-2.42h7.67v1.54c-7.45,6.05-12.73,15.78-15.9,23.06-6.81,17.29-11.87,30.6,6.27,41.6,7.7,4.56,17.87,7.08,28.65,7.08h50.71v-39.46h-12.31ZM111.35,52.73l-3.17,5.64h-27.77l-3.17-5.64h34.11ZM106.97,64v5.64h-25.35v-5.64h25.35ZM69.16,131.14c-6.27-3.72-9.73-8.55-9.73-13.6,0-7.95,7.81-32.31,20.2-42.27h29.32c7.73,6.23,13.76,18.28,17.12,28.18h-31.79v33.82c-9.54,0-18.46-2.18-25.13-6.13h0ZM138.66,137.27h-38.03v-5.64h38.03v5.64ZM138.66,126h-38.03v-5.64h38.03v5.64ZM100.63,114.73v-5.64h38.03v5.64h-38.03ZM100.63,114.73"/>
  <path d="M103.8,89.36c0-4.66-4.26-8.45-9.51-8.45-12.59.42-12.59,16.49,0,16.91,5.24,0,9.51-3.79,9.51-8.46h0ZM91.13,89.36c0-1.55,1.42-2.82,3.17-2.82,4.2.14,4.2,5.5,0,5.64-1.75,0-3.17-1.26-3.17-2.82h0ZM91.13,89.36"/>
</svg>