<?xml version="1.0" encoding="UTF-8"?>
<svg id="Layer_1" xmlns="http://www.w3.org/2000/svg" version="1.1" viewBox="0 0 190 190" fill="currentColor">
  <!-- Generator: Adobe Illustrator 29.8.2, SVG Export Plug-In . SVG Version: 2.1.1 Build 3)  -->
  <path d="M133.24,127.35V45H56.76v82.35h-5.88v17.65h88.23v-17.65h-5.88ZM86.18,77.35h17.65v50h-17.65v-50ZM109.71,77.35h17.65v50h-17.65v-50ZM127.35,50.88v20.59h-17.65v-20.59h17.65ZM103.82,50.88v20.59h-17.65v-20.59h17.65ZM80.29,50.88v20.59h-17.65v-20.59h17.65ZM62.65,77.35h17.65v50h-17.65v-50ZM133.24,139.12H56.76v-5.88h76.47v5.88ZM133.24,139.12"/>
  <rect x="68.53" y="59.71" width="5.88" height="5.88"/>
  <rect x="92.06" y="59.71" width="5.88" height="5.88"/>
  <rect x="115.59" y="59.71" width="5.88" height="5.88"/>
  <rect x="68.53" y="92.06" width="5.88" height="5.88"/>
  <rect x="68.53" y="103.82" width="5.88" height="5.88"/>
  <rect x="92.06" y="92.06" width="5.88" height="5.88"/>
  <rect x="92.06" y="103.82" width="5.88" height="5.88"/>
  <rect x="115.59" y="92.06" width="5.88" height="5.88"/>
  <rect x="115.59" y="103.82" width="5.88" height="5.88"/>
  <rect x="68.53" y="115.59" width="5.88" height="5.88"/>
  <rect x="92.06" y="115.59" width="5.88" height="5.88"/>
  <rect x="115.59" y="115.59" width="5.88" height="5.88"/>
</svg>