<?xml version="1.0" encoding="UTF-8"?>
<svg id="Layer_1" xmlns="http://www.w3.org/2000/svg" version="1.1" viewBox="0 0 190 190" fill="currentColor">
  <!-- Generator: Adobe Illustrator 29.8.2, SVG Export Plug-In . SVG Version: 2.1.1 Build 3)  -->
  <path d="M145,50.88H45v52.94h11.76v35.29h17.65v-35.29h41.18v35.29h17.65v-35.29h11.76v-52.94ZM68.53,133.24h-5.88v-29.41h5.88v29.41ZM127.35,133.24h-5.88v-29.41h5.88v29.41ZM139.12,97.94H50.88v-41.18h88.23v41.18ZM139.12,97.94"/>
  <path d="M68.53,89.12h5.88v-17.65h5.88v-5.88h-17.65v5.88h5.88v17.65ZM68.53,89.12"/>
  <path d="M92.06,83.24h5.88v5.88h5.88v-14.71c-.44-11.69-17.21-11.68-17.65,0v14.71h5.88v-5.88ZM95,71.47c1.62,0,2.94,1.32,2.94,2.94v2.94h-5.88v-2.94c0-1.62,1.32-2.94,2.94-2.94h0ZM95,71.47"/>
  <path d="M115.59,84.45l2.94-2.94,2.94,2.94v4.66h5.88v-7.1l-4.66-4.66,4.66-4.66v-7.1h-5.88v4.66l-2.94,2.94-2.94-2.94v-4.66h-5.88v7.1l4.66,4.66-4.66,4.66v7.1h5.88v-4.66ZM115.59,84.45"/>
</svg>